<?xml version="1.0" encoding="UTF-8" standalone="no"?>
<!-- Created with Inkscape (http://www.inkscape.org/) -->

<svg
   xmlns:dc="http://purl.org/dc/elements/1.1/"
   xmlns:cc="http://creativecommons.org/ns#"
   xmlns:rdf="http://www.w3.org/1999/02/22-rdf-syntax-ns#"
   xmlns:svg="http://www.w3.org/2000/svg"
   xmlns="http://www.w3.org/2000/svg"
   xmlns:sodipodi="http://sodipodi.sourceforge.net/DTD/sodipodi-0.dtd"
   xmlns:inkscape="http://www.inkscape.org/namespaces/inkscape"
   width="96"
   height="96"
   viewBox="0 0 96.000001 96.000002"
   id="svg2"
   version="1.1"
   inkscape:version="0.91 r13725"
   sodipodi:docname="LockCamera.svg"
   inkscape:export-filename="/home/ubuntu/Desktop/ic_launcher.png"
   inkscape:export-xdpi="180"
   inkscape:export-ydpi="180">
  <defs
     id="defs4" />
  <sodipodi:namedview
     id="base"
     pagecolor="#ffffff"
     bordercolor="#666666"
     borderopacity="1.0"
     inkscape:pageopacity="0.0"
     inkscape:pageshadow="2"
     inkscape:zoom="4"
     inkscape:cx="45.074094"
     inkscape:cy="24.907792"
     inkscape:document-units="px"
     inkscape:current-layer="g4170"
     showgrid="false"
     units="px"
     showguides="true"
     inkscape:guide-bbox="true"
     inkscape:window-width="1855"
     inkscape:window-height="951"
     inkscape:window-x="65"
     inkscape:window-y="24"
     inkscape:window-maximized="1"
     inkscape:snap-grids="true"
     inkscape:snap-to-guides="false"
     showborder="true"
     inkscape:showpageshadow="false" />
  <metadata
     id="metadata7">
    <rdf:RDF>
      <cc:Work
         rdf:about="">
        <dc:format>image/svg+xml</dc:format>
        <dc:type
           rdf:resource="http://purl.org/dc/dcmitype/StillImage" />
        <dc:title />
      </cc:Work>
    </rdf:RDF>
  </metadata>
  <g
     inkscape:groupmode="layer"
     id="layer2"
     inkscape:label="Base"
     style="display:none">
    <rect
       style="fill:#81a9b5;fill-opacity:1;stroke:none;stroke-width:4;stroke-linecap:round;stroke-miterlimit:4;stroke-dasharray:none;stroke-opacity:1"
       id="rect4143"
       width="90"
       height="90"
       x="2.3571472"
       y="3.1428566"
       ry="10"
       rx="10" />
  </g>
  <g
     inkscape:label="バックアップ"
     inkscape:groupmode="layer"
     id="layer1"
     transform="translate(0,-956.36216)"
     style="display:none"
     sodipodi:insensitive="true">
    <path
       style="fill:#f1c40f;fill-opacity:1;fill-rule:evenodd;stroke:#000000;stroke-width:5.92651081;stroke-linecap:butt;stroke-linejoin:miter;stroke-miterlimit:4;stroke-dasharray:none;stroke-opacity:1"
       d="m -82.411783,1012.0161 a 23.710459,23.710459 0 0 0 -23.711907,23.7093 23.710459,23.710459 0 0 0 23.711907,23.7119 23.710459,23.710459 0 0 0 23.709375,-23.7119 23.710459,23.710459 0 0 0 -23.709375,-23.7093 z m 0,8.3315 a 15.379148,15.379148 0 0 1 15.377825,15.3778 15.379148,15.379148 0 0 1 -15.377825,15.3804 15.379148,15.379148 0 0 1 -15.380349,-15.3804 15.379148,15.379148 0 0 1 15.380349,-15.3778 z"
       id="path3338"
       inkscape:connector-curvature="0" />
    <rect
       style="fill:#f1c40f;fill-opacity:1;fill-rule:evenodd;stroke:#000000;stroke-width:5.92651081;stroke-linecap:butt;stroke-linejoin:miter;stroke-miterlimit:4;stroke-dasharray:none;stroke-opacity:1"
       id="rect3336"
       width="61.373669"
       height="52.734932"
       x="-113.09988"
       y="1034.3302"
       ry="3.4607294" />
    <path
       style="fill:none;fill-opacity:1;fill-rule:evenodd;stroke:#ffffff;stroke-width:3.46755075;stroke-linecap:butt;stroke-linejoin:miter;stroke-miterlimit:4;stroke-dasharray:none;stroke-opacity:1"
       d="m 35.684486,970.30768 28.45995,0 3.905862,17.02017 -36.271692,0 z"
       id="rect3337"
       inkscape:connector-curvature="0"
       sodipodi:nodetypes="ccccc" />
    <rect
       style="fill:none;fill-opacity:1;fill-rule:evenodd;stroke:#ffffff;stroke-width:3.46755075;stroke-linecap:butt;stroke-linejoin:miter;stroke-miterlimit:4;stroke-dasharray:none;stroke-opacity:1"
       id="rect3340"
       width="79.464706"
       height="52.013256"
       x="10.182126"
       y="985.25555"
       ry="4.6234007" />
    <circle
       style="fill:none;fill-opacity:1;fill-rule:evenodd;stroke:#ffffff;stroke-width:3.46755075;stroke-linecap:butt;stroke-linejoin:miter;stroke-miterlimit:4;stroke-dasharray:none;stroke-opacity:1"
       id="path3342"
       cx="49.914459"
       cy="1012.0873"
       r="17.750557" />
    <rect
       ry="4.6234007"
       y="985.10693"
       x="5.8015079"
       height="52.601368"
       width="18.957872"
       id="rect3344"
       style="fill:none;fill-opacity:1;fill-rule:evenodd;stroke:#ffffff;stroke-width:3.46755075;stroke-linecap:butt;stroke-linejoin:miter;stroke-miterlimit:4;stroke-dasharray:none;stroke-opacity:1" />
    <path
       id="circle4146"
       style="fill:none;fill-opacity:1;fill-rule:evenodd;stroke:#ffffff;stroke-width:3.46755075;stroke-linecap:round;stroke-linejoin:miter;stroke-miterlimit:4;stroke-dasharray:none;stroke-opacity:1"
       sodipodi:type="arc"
       sodipodi:cx="50.137684"
       sodipodi:cy="1012.0873"
       sodipodi:rx="11.355661"
       sodipodi:ry="11.355661"
       sodipodi:start="3.3598252"
       sodipodi:end="1.8252838"
       d="m 39.05136,1009.6287 a 11.355661,11.355661 0 0 1 9.216618,-8.7421 11.355661,11.355661 0 0 1 11.55639,5.2745 11.355661,11.355661 0 0 1 -0.565642,12.6906 11.355661,11.355661 0 0 1 -11.979823,4.2255"
       sodipodi:open="true" />
    <circle
       style="fill:#000000;fill-opacity:1;stroke:none;stroke-width:3;stroke-linecap:round;stroke-miterlimit:4;stroke-dasharray:none;stroke-opacity:1"
       id="path4148"
       cx="46.25782"
       cy="999.67633"
       r="15.022289" />
    <rect
       style="fill:#000000;fill-opacity:1;stroke:none;stroke-width:3;stroke-linecap:round;stroke-miterlimit:4;stroke-dasharray:none;stroke-opacity:1"
       id="rect4150"
       width="13.353148"
       height="25.037151"
       x="39.581268"
       y="1003.4988"
       ry="5.7893014" />
  </g>
  <g
     style="display:none"
     transform="translate(0,-956.36216)"
     id="g4145"
     inkscape:groupmode="layer"
     inkscape:label="フラットデザイン">
    <path
       inkscape:connector-curvature="0"
       id="path4147"
       d="m -82.411783,1012.0161 a 23.710459,23.710459 0 0 0 -23.711907,23.7093 23.710459,23.710459 0 0 0 23.711907,23.7119 23.710459,23.710459 0 0 0 23.709375,-23.7119 23.710459,23.710459 0 0 0 -23.709375,-23.7093 z m 0,8.3315 a 15.379148,15.379148 0 0 1 15.377825,15.3778 15.379148,15.379148 0 0 1 -15.377825,15.3804 15.379148,15.379148 0 0 1 -15.380349,-15.3804 15.379148,15.379148 0 0 1 15.380349,-15.3778 z"
       style="fill:#0b0069;fill-opacity:1;fill-rule:evenodd;stroke:#ffffff;stroke-width:5.92651081;stroke-linecap:butt;stroke-linejoin:miter;stroke-miterlimit:4;stroke-dasharray:none;stroke-opacity:1" />
    <rect
       ry="3.4607294"
       y="1034.3302"
       x="-113.09988"
       height="52.734932"
       width="61.373669"
       id="rect4149"
       style="fill:#9187fa;fill-opacity:1;fill-rule:evenodd;stroke:#ffffff;stroke-width:5.92651081;stroke-linecap:butt;stroke-linejoin:miter;stroke-miterlimit:4;stroke-dasharray:none;stroke-opacity:1" />
    <path
       sodipodi:nodetypes="ccccc"
       inkscape:connector-curvature="0"
       id="path4151"
       d="m 35.684486,970.30768 28.45995,0 3.905862,17.02017 -36.271692,0 z"
       style="fill:#004295;fill-opacity:1;fill-rule:evenodd;stroke:#ffffff;stroke-width:3.46755075;stroke-linecap:butt;stroke-linejoin:miter;stroke-miterlimit:4;stroke-dasharray:none;stroke-opacity:1" />
    <rect
       ry="4.6234007"
       y="985.25555"
       x="10.182126"
       height="52.013256"
       width="79.464706"
       id="rect4153"
       style="fill:#004295;fill-opacity:1;fill-rule:evenodd;stroke:#ffffff;stroke-width:3.46755075;stroke-linecap:butt;stroke-linejoin:miter;stroke-miterlimit:4;stroke-dasharray:none;stroke-opacity:1" />
    <circle
       r="17.750557"
       cy="1012.0873"
       cx="49.914459"
       id="circle4155"
       style="fill:#004295;fill-opacity:1;fill-rule:evenodd;stroke:#ffffff;stroke-width:3.46755075;stroke-linecap:butt;stroke-linejoin:miter;stroke-miterlimit:4;stroke-dasharray:none;stroke-opacity:1" />
    <rect
       style="fill:#004295;fill-opacity:1;fill-rule:evenodd;stroke:#ffffff;stroke-width:3.46755075;stroke-linecap:butt;stroke-linejoin:miter;stroke-miterlimit:4;stroke-dasharray:none;stroke-opacity:1"
       id="rect4157"
       width="18.957872"
       height="52.601368"
       x="5.8015079"
       y="985.10693"
       ry="4.6234007" />
    <path
       sodipodi:open="true"
       d="m 39.05136,1009.6287 a 11.355661,11.355661 0 0 1 9.216618,-8.7421 11.355661,11.355661 0 0 1 11.55639,5.2745 11.355661,11.355661 0 0 1 -0.565642,12.6906 11.355661,11.355661 0 0 1 -11.979823,4.2255"
       sodipodi:end="1.8252838"
       sodipodi:start="3.3598252"
       sodipodi:ry="11.355661"
       sodipodi:rx="11.355661"
       sodipodi:cy="1012.0873"
       sodipodi:cx="50.137684"
       sodipodi:type="arc"
       style="fill:none;fill-opacity:1;fill-rule:evenodd;stroke:#ffffff;stroke-width:3.46755075;stroke-linecap:round;stroke-linejoin:miter;stroke-miterlimit:4;stroke-dasharray:none;stroke-opacity:1"
       id="path4159" />
    <circle
       r="8.631814"
       cy="1057.0168"
       cx="-82.118393"
       id="circle4161"
       style="fill:#ffffff;fill-opacity:1;stroke:none;stroke-width:3;stroke-linecap:round;stroke-miterlimit:4;stroke-dasharray:none;stroke-opacity:1" />
    <rect
       ry="3.3265352"
       y="1059.2133"
       x="-85.95475"
       height="14.386358"
       width="7.6727247"
       id="rect4163"
       style="fill:#ffffff;fill-opacity:1;stroke:none;stroke-width:3;stroke-linecap:round;stroke-miterlimit:4;stroke-dasharray:none;stroke-opacity:1" />
    <path
       style="fill:none;fill-rule:evenodd;stroke:#ffffff;stroke-width:10;stroke-linecap:butt;stroke-linejoin:miter;stroke-miterlimit:4;stroke-dasharray:none;stroke-opacity:1"
       d="M 8.2142857,965.93359 83.214286,1044.1479"
       id="path4165"
       inkscape:connector-curvature="0" />
    <rect
       style="fill:#004295;fill-opacity:1;stroke:none;stroke-width:4;stroke-linecap:round;stroke-miterlimit:4;stroke-dasharray:none;stroke-opacity:1"
       id="rect4167"
       width="107.48023"
       height="26.162951"
       x="-61.871845"
       y="907.75885"
       ry="4.6234002" />
    <rect
       style="fill:#0b0069;fill-opacity:1;stroke:none;stroke-width:4;stroke-linecap:round;stroke-miterlimit:4;stroke-dasharray:none;stroke-opacity:1"
       id="rect4169"
       width="39.244427"
       height="23.688078"
       x="-42.072853"
       y="876.99969"
       ry="4.6234002" />
  </g>
  <g
     inkscape:groupmode="layer"
     id="layer3"
     inkscape:label="フラットデザイン 1"
     style="display:none">
    <path
       style="display:inline;fill:#004295;fill-opacity:1;fill-rule:evenodd;stroke:none;stroke-width:3.46755075;stroke-linecap:butt;stroke-linejoin:miter;stroke-miterlimit:4;stroke-dasharray:none;stroke-opacity:1"
       d="m 26.064453,30.572266 c 0.292492,0.277537 0.476563,0.66661 0.476563,1.103515 l 0,46.363281 c 0,0.483504 -0.227272,0.908483 -0.576172,1.1875 l 57.589844,0 c 2.395963,0 4.324218,-1.928254 4.324218,-4.324218 l 0,-40.003906 c 0,-2.395964 -1.928255,-4.326172 -4.324218,-4.326172 l -57.490235,0 z"
       id="rect4186"
       inkscape:connector-curvature="0" />
    <circle
       style="display:inline;fill:#004295;fill-opacity:1;fill-rule:evenodd;stroke:#ffffff;stroke-width:3.46755075;stroke-linecap:butt;stroke-linejoin:miter;stroke-miterlimit:4;stroke-dasharray:none;stroke-opacity:1"
       id="circle4172"
       cx="49.914459"
       cy="1012.0873"
       r="17.750557"
       transform="translate(0,-956.36216)" />
    <path
       inkscape:connector-curvature="0"
       id="path4175"
       d="M 8.2142857,965.93359 83.214286,1044.1479"
       style="display:inline;fill:none;fill-rule:evenodd;stroke:#ffffff;stroke-width:10;stroke-linecap:butt;stroke-linejoin:miter;stroke-miterlimit:4;stroke-dasharray:none;stroke-opacity:1"
       transform="translate(0,-956.36216)" />
    <path
       transform="translate(0,-956.36216)"
       id="path4178"
       style="display:inline;fill:none;fill-opacity:1;fill-rule:evenodd;stroke:#ffffff;stroke-width:3.46755075;stroke-linecap:round;stroke-linejoin:miter;stroke-miterlimit:4;stroke-dasharray:none;stroke-opacity:1"
       sodipodi:type="arc"
       sodipodi:cx="50.137684"
       sodipodi:cy="1012.0873"
       sodipodi:rx="11.355661"
       sodipodi:ry="11.355661"
       sodipodi:start="3.3598252"
       sodipodi:end="1.8252838"
       d="m 39.05136,1009.6287 a 11.355661,11.355661 0 0 1 9.216618,-8.7421 11.355661,11.355661 0 0 1 11.55639,5.2745 11.355661,11.355661 0 0 1 -0.565642,12.6906 11.355661,11.355661 0 0 1 -11.979823,4.2255"
       sodipodi:open="true" />
    <rect
       style="fill:#004295;fill-opacity:1;stroke:none;stroke-width:4;stroke-linecap:round;stroke-miterlimit:4;stroke-dasharray:none;stroke-opacity:1"
       id="rect4181"
       width="15.467961"
       height="48.706882"
       x="7.5130095"
       y="30.504234"
       ry="4.4084435" />
    <path
       style="display:inline;fill:#004295;fill-opacity:1;fill-rule:evenodd;stroke:none;stroke-width:3.46755075;stroke-linecap:butt;stroke-linejoin:miter;stroke-miterlimit:4;stroke-dasharray:none;stroke-opacity:1"
       d="m 36.684486,15.63302 26.45995,0 2.905862,11.546058 -32.271692,0 z"
       id="path4183"
       inkscape:connector-curvature="0"
       sodipodi:nodetypes="ccccc" />
    <rect
       style="display:inline;fill:#004295;fill-opacity:0.74371858;fill-rule:evenodd;stroke:none;stroke-width:3.46755075;stroke-linecap:butt;stroke-linejoin:miter;stroke-miterlimit:4;stroke-dasharray:none;stroke-opacity:1"
       id="rect4186-7"
       width="68.592941"
       height="48.654499"
       x="-93.444786"
       y="-57.785183"
       ry="4.3248444" />
    <rect
       ry="1.5250764"
       y="-58.206936"
       x="-105.14816"
       height="49.413868"
       width="18.957872"
       id="rect4189-5"
       style="display:inline;fill:#004295;fill-opacity:0.73869348;fill-rule:evenodd;stroke:none;stroke-width:3.46799994;stroke-linecap:butt;stroke-linejoin:miter;stroke-miterlimit:4;stroke-dasharray:none;stroke-opacity:1" />
  </g>
  <g
     style="display:none"
     inkscape:label="フラットデザイン最終形"
     id="g4233"
     inkscape:groupmode="layer"
     sodipodi:insensitive="true">
    <path
       style="display:inline;fill:#004295;fill-opacity:1;fill-rule:evenodd;stroke:none;stroke-width:3.46755075;stroke-linecap:butt;stroke-linejoin:miter;stroke-miterlimit:4;stroke-dasharray:none;stroke-opacity:1"
       d="m 35.277344,30.572266 6.955078,7.253906 c 2.358938,-1.016711 4.954962,-1.583984 7.68164,-1.583984 10.740374,-10e-7 19.484387,8.743974 19.484376,19.484374 -1.2e-5,3.01436 -0.707197,5.859454 -1.935547,8.410157 l 14.46875,15.089843 1.623047,0 c 2.39596,0 4.324218,-1.928254 4.324218,-4.324218 l 0,-40.003906 c 0,-2.395964 -1.928259,-4.326172 -4.324218,-4.326172 l -48.277344,0 z m -8.736328,5.335937 0,42.130859 c 0,0.483504 -0.227272,0.908485 -0.576172,1.1875 l 42.113281,0 -7.144531,-7.451171 c -3.137532,2.161545 -6.93145,3.435545 -11.019532,3.435547 -10.740338,0 -19.484342,-8.744074 -19.484374,-19.484376 -6e-6,-4.379516 1.471636,-8.413718 3.921874,-11.671874 l -2.302734,-2.402344 -5.507812,-5.744141 z m 23.373046,3.800781 c -1.779251,0 -3.48302,0.298049 -5.080078,0.830078 l 2.341797,2.441407 c 0.266726,-0.06202 0.533978,-0.120503 0.806641,-0.166016 1.314863,-0.21949 2.630239,-0.232074 3.908203,-0.05859 3.833891,0.52043 7.325075,2.727272 9.412109,6.138672 1.926367,3.148753 2.392941,6.895179 1.445313,10.324219 l 2.123047,2.214844 c 0.675025,-1.774007 1.06054,-3.691845 1.060547,-5.707032 1.1e-5,-8.866399 -7.15121,-16.017578 -16.017579,-16.017578 z m 0.259766,6.398438 9.578125,9.988281 c 0.07171,-1.855654 -0.391787,-3.732429 -1.40625,-5.390625 -1.763303,-2.882216 -4.871395,-4.587463 -8.171875,-4.597656 z m -13.40625,0.466797 c -1.804915,2.592884 -2.869146,5.743412 -2.86914,9.152343 2.8e-5,8.8663 7.149287,16.015626 16.015624,16.015626 3.166689,0 6.106441,-0.925489 8.587891,-2.501954 l -2,-2.085937 c -2.885719,1.605285 -6.336055,2.10487 -9.660156,1.240234 a 1.7345761,1.7345761 0 0 1 0.873047,-3.357422 c 2.140151,0.556752 4.344767,0.351856 6.28125,-0.496093 L 41.494141,51.503906 c -0.327394,0.671437 -0.583288,1.386925 -0.75,2.138672 a 1.7339488,1.7339488 0 1 1 -3.384766,-0.75 c 0.319905,-1.442528 0.882527,-2.787931 1.628906,-4.003906 l -2.220703,-2.314453 z"
       id="path4235"
       inkscape:connector-curvature="0" />
    <rect
       ry="4.4084435"
       y="30.504234"
       x="7.5130095"
       height="48.706882"
       width="15.467961"
       id="rect4243"
       style="fill:#004295;fill-opacity:1;stroke:none;stroke-width:4;stroke-linecap:round;stroke-miterlimit:4;stroke-dasharray:none;stroke-opacity:1" />
    <path
       sodipodi:nodetypes="ccccc"
       inkscape:connector-curvature="0"
       id="path4245"
       d="m 36.684486,15.63302 26.45995,0 2.905862,11.546058 -32.271692,0 z"
       style="display:inline;fill:#004295;fill-opacity:1;fill-rule:evenodd;stroke:none;stroke-width:3.46755075;stroke-linecap:butt;stroke-linejoin:miter;stroke-miterlimit:4;stroke-dasharray:none;stroke-opacity:1" />
  </g>
  <g
     inkscape:groupmode="layer"
     id="g4174"
     inkscape:label="フラットデザイン最終形 copy"
     style="display:inline">
    <g
       style="display:inline"
       inkscape:label="Base copy"
       id="g4170"
       inkscape:groupmode="layer">
      <rect
         rx="9.333333"
         ry="9.333334"
         y="6"
         x="6"
         height="84"
         width="84"
         id="rect4172"
         style="fill:#e55194;fill-opacity:1;stroke:none;stroke-width:4;stroke-linecap:round;stroke-miterlimit:4;stroke-dasharray:none;stroke-opacity:1" />
    </g>
    <path
       id="path4176"
       d="m 38.597121,35.078666 5.095829,5.314771 c 1.72834,-0.744921 3.630387,-1.160548 5.628162,-1.160548 7.869228,-10e-7 14.275767,6.406511 14.27576,14.275758 -9e-6,2.208553 -0.518147,4.293088 -1.418132,6.16193 l 10.600924,11.055985 1.18917,0 c 1.755465,0 3.168255,-1.412787 3.168255,-3.168256 l 0,-29.309953 c 0,-1.755468 -1.412791,-3.169687 -3.168255,-3.169687 l -35.371713,0 z m -6.400908,3.909519 0,30.868322 c 0,0.354253 -0.166518,0.665626 -0.422149,0.870055 l 30.855445,0 -5.234636,-5.459304 c -2.298799,1.583715 -5.078517,2.517146 -8.073761,2.517148 -7.869201,0 -14.275735,-6.406584 -14.275757,-14.275759 -6e-6,-3.208773 1.078234,-6.16454 2.873467,-8.551718 l -1.687161,-1.760142 -4.035448,-4.208602 z m 17.124899,2.784746 c -1.303617,0 -2.55193,0.218373 -3.722057,0.60818 l 1.715781,1.788763 c 0.195423,-0.04544 0.391234,-0.08829 0.591008,-0.121636 0.96337,-0.160816 1.927116,-0.170035 2.863451,-0.04293 2.809005,0.381307 5.366916,1.99821 6.896038,4.497665 1.411406,2.307019 1.753254,5.051941 1.058948,7.564321 l 1.555508,1.622766 c 0.494576,-1.299775 0.777034,-2.704932 0.777039,-4.181413 9e-6,-6.496208 -5.239528,-11.735715 -11.735716,-11.735715 z m 0.190325,4.68799 7.017674,7.318186 c 0.05254,-1.359595 -0.287054,-2.734666 -1.030327,-3.949587 -1.291933,-2.111735 -3.569161,-3.36113 -5.987347,-3.368599 z m -9.822454,0.342012 c -1.32242,1.899747 -2.102159,4.208068 -2.102154,6.705714 2.1e-5,6.496136 5.23812,11.734285 11.734283,11.734285 2.320161,0 4.47405,-0.678085 6.292153,-1.833126 l -1.465356,-1.528318 c -2.1143,1.176155 -4.642282,1.542191 -7.077775,0.908691 a 1.2708844,1.2708844 0 0 1 0.639661,-2.459907 c 1.56804,0.40792 3.183313,0.257798 4.602129,-0.363476 l -9.159896,-9.551994 c -0.239874,0.491947 -0.427363,1.016168 -0.549508,1.566957 a 1.2704248,1.2704248 0 1 1 -2.479941,-0.549508 c 0.234387,-1.056907 0.646607,-2.042654 1.193461,-2.933572 l -1.627057,-1.695746 z"
       style="display:inline;fill:#ffffff;fill-opacity:1;fill-rule:evenodd;stroke:none;stroke-width:3.46755075;stroke-linecap:butt;stroke-linejoin:miter;stroke-miterlimit:4;stroke-dasharray:none;stroke-opacity:1"
       inkscape:connector-curvature="0" />
    <rect
       style="fill:#ffffff;fill-opacity:1;stroke:none;stroke-width:4;stroke-linecap:round;stroke-miterlimit:4;stroke-dasharray:none;stroke-opacity:1"
       id="rect4178"
       width="11.333024"
       height="35.68642"
       x="18.254826"
       y="35.02882"
       ry="3.2299662" />
    <path
       style="display:inline;fill:#ffffff;fill-opacity:1;fill-rule:evenodd;stroke:none;stroke-width:3.46755075;stroke-linecap:butt;stroke-linejoin:miter;stroke-miterlimit:4;stroke-dasharray:none;stroke-opacity:1"
       d="m 39.628103,24.13302 19.386604,0 2.129058,8.459534 -23.644734,0 z"
       id="path4180"
       inkscape:connector-curvature="0"
       sodipodi:nodetypes="ccccc" />
  </g>
</svg>
